<mxfile host="app.diagrams.net" modified="2023-07-02T12:34:26.331Z" agent="Mozilla/5.0 (Windows NT 10.0; Win64; x64; rv:109.0) Gecko/20100101 Firefox/114.0" etag="hLBrsyfhND5ZMyUuKbtI" version="21.5.2" type="github">
  <diagram name="Page-1" id="_9HDTZl2bifVBmnDLwod">
    <mxGraphModel dx="989" dy="534" grid="1" gridSize="10" guides="1" tooltips="1" connect="1" arrows="1" fold="1" page="1" pageScale="1" pageWidth="827" pageHeight="1169" math="0" shadow="0">
      <root>
        <mxCell id="0" />
        <mxCell id="1" parent="0" />
        <mxCell id="DgCpWFNnC_7hHjafOFHn-1" value="" style="rounded=1;whiteSpace=wrap;html=1;fillColor=none;" vertex="1" parent="1">
          <mxGeometry x="340" y="230" width="120" height="160" as="geometry" />
        </mxCell>
        <mxCell id="DgCpWFNnC_7hHjafOFHn-5" value="" style="shape=image;verticalLabelPosition=bottom;labelBackgroundColor=default;verticalAlign=top;aspect=fixed;imageAspect=0;image=data:image/png,iVBORw0KGgoAAAANSUhEUgAAAHAAAABnCAYAAADYM8ZoAAAWk0lEQVR4Xu2d53IjRReGZXLeH1wGOcMSiuLWWXIOVVwHacn409P40ffSJem0PBpLZqUql2TNTPfpk1O3zj777LPzxQFff//99+L+++9f/Pbbb4u777578ddffy1eeeWVBd/fe++9iz/++OOA0NVTC+Ndd921+Oijj1ZrcE18P+fr7NAEZIG3b99ePPzww414EPHZZ59dnJ+fN+Ldc889c65/8th//vlnY7Szs7PFl19+uVrDzz//vHjooYcaI875OjgBWTjEgnC8P/fccwuIikRCPL475hfwQ0QkDmJ98cUXjZgwo2ubE/6DE1AOFRFvvPHGSm1eJwmESEjirVu3/sV4/3kVCuFYOFz8/PPPN4lDpT744IONcedWQVOlQwL98ssvTWWyns8//7wREQacW4McXAJRlRAL1cmLBUM0EOP7VCTP+XwPKwTkhSqFqKjWOV8HJyDS9+uvvzbPE44FARDv999/X9x3333XQgITVhiQNeGRPvDAA7N70QcnIARDdfKuukSdooJwBOa2IVOlA5hxwISZ8YAZQqJKj16FAiB/SAuLAOkgX9XiAniXSF7X+0R98hlJROXovV2FFzeVgK6XcZBEpI81oE2WIVrDA/9zje9u3LixIMRgveBBjxUmEGeaFfBZvSZLoCoD4OA8bYCEBUgIozphMQDGdyz2xRdfbM/wPIvwpVqam4MrBFXXE3bWLxM/8sgj7TNEhMgwuEzKunXcIJpmAxzwPTjDkeNz9ZpMQJ0N1R9AynEAgnSZYUlgAI6F8Rx/SqhSyrjXQYWyJpkWpgNu1T9EUwpVtYZLShz/81mGheiajTQrmwg5mYBykCkliQXwTz/9dFsMKoPvJbYAm8EAeO7TeTH7oi2puPCQ13skK4WuF9jESa5fb5vsDSpTpuce/pDGESduMgEFGEDV6QCEVymh5ChTZep6/neBqo8MHbSJhyRQNbdwazJYK3Abx5oSlBgSnLWjZnn+66+/btomHSE/V3HwZAKqPtL1Z/KbN282tcDn3kszzSTxlTgJnAu5DjZwHZFNwmvHWJO2jjUpZRCadX/66acru6jNNJ24jYkmE1BAlD6M71tvvdWAkivlOhZlYCux9N7gUG2edkLprKTg0NczHahNZz28+D/XrYZRchUACOiLZ3XyZpdAkI6HCbcwGVWFJ598cgU8H5Q4JFHA0i6kK+3CfO7Y40ClifcMKfhfTSKR1jllXNOR+eSTT1ZMnOPOLoGp8jIlduzq79CSy/wSCiJ++OGH/9JQI07cZBUq8SQWzgu2z5fcdwzIOkYYMrwwBYekKs0V/iYT0EAdvY30GVakd3aMiDsWmJRA4IFYqFHMC38mCWZVoRAMG/jUU081z4oMvAb8pELH2ARCobVIs+FLoEqRRj6Ly00jTZZAPa2XXnpplbg1q3BdMiljaJ7nrnR8+AzhkMIMrWaVQKsJSOH333+/En8mNQacZ+n/jVENmfS2UZ1I3XvvvdcWWHnhkyUQMSfuQ+rMZ6YDc1Kj2xktbWDiLXtrZpVAqgm8zBpYAtK7OhGw1hSZT82KDonw6jUsgVYHJBCibsxn85HZFSVxRIWmm5yFXAC3vJShikF/pqW2LdLMR++Oj5arbBt0Lc6fiLZclswqnkoCXBSyVZV98E+y27Asy23YyJaeq/pCvdHiawJJJT1znSIpi5OVBGrEM7VkJp/v9MRMzeleg5iRrjVtDHDo0elcjThZPG+1YF2yOZlOdWjVYZ167AnK+PbOSETWRUaLd1ozgFuGsWQlA5YEZEIlSy8Jrn7hhRdWFXYAMCkrl6zjynXcqPoQeN4/+OCDBe2F1sYEWgax/FQFucyniw58wCajAN9IpiMLrokHmRSvMWuhzEk+mA41XhUDCyPvEoXP2TBsawZ4poJhF3tj5koCAZrFA5StAgCN9NmElETIJPWoClW6GJfSCnPh1TLuM88805DAWCBKKeozQJtUFc+iRT7++ONV4TW7ACovTylyPqXetgfm/fbbb5sUEUqJC5PaqfbWwejaLDdlMlzthC3kPqv4jjOsQqW4VXRsn7ZAzgFJmayuEJNAWNgl/jGxq5Qh6XKxSNwlzrRAmtl+5iPxYLWksqEyQd6nDYYxksh21412lWsrMx5knrTdCA5ayc4F1SnPlhKoyrE4+/LLLzdJpMqehpzBQXDaGQCpCKkNIAshkIxvPhCuhruRSFVLBrnV+CJSLlbdMa5Vkm0E1IT0jVjAzZgyiDU8uhBgsOw62Da+qrJfm7a/EWn5hy20FKfma85ipUItxsoVEDB1ezYjicxR+8c4tg74DlK0fa+++mpDEOP5yuy99mkbgoCfZ0hPYQoYG+LJzZWNSvPAvcKpNsI+AZ8ERgJViyNSmOOrWbKkBpzMBR5YAy9LcUMSKOGQLOxR6ni5I1WR3qqErRwNrqcHqterJ2ernnP0BeSKAOu8T2NUxq7gMyTyGSWF59QEBN02b/H9Dz/8sGKWygamMLjmDCmUcMbFxNh7JO7PlnHGebYyAKhdVemys9hsk7guCWttjBKjSvT7ioCVeu1VeFVBr8brr8tAwm+edBUvQkBsDMTCzqT3ZF8H72+//XZzX1UPImCEw3YFep/322DUqyUTE5UNrWARwckQfpfSVY2z7bp+wuOPP978ARwyNeHZUvyX8/2zBy9dc91kbY6bLrMFcCQQngL4Pp5VRUMoHQubbBPRl50rTYr2VlXYe5aXmYPxdYr00LG79tmcLd3gc4LOn376qQWf7ixlcjkIVz49Qbl5pF51GaD3+Yy2WMOvU5BpvynzpRep6693O5IoqObWafI+Ewj2kzYvVG8uYxKDRrxOPVHdVx2NES+rAnDu69o4nSH/3zfzqamU6sq5Gl23NEGwMHE2QBN/tn0k2ECzCxDSLjM51LjGTIAI2BcHjy7ksvel99inwvZhAla26GKrdZ9am2pjM8xA2nkZVhAbNhWqh6PLavYb6dNtFxA52VhtKoCXJczocykJrkVbsk8baPhkDLwvB0Y7atyq0+gamhMjJ+oCWyrSAVDvCqS6fl9AjhLjMvepgnTS7JR2DVNVnTZQ3CWj6yxdBu58JmNlCWm2qhFQaZIg6Nq+OXcqEJue720H9+kkjWRa5oLrWMbVBFjxSfy0YH4ZGJ6bUZCQeJ0ScyqHVohYJ+U6UNfBSarWN/U6+Em1bOXGrQxny5iixYHcCAGRPhwXVAFlnaqtbR8A9pV8JDAz7lPnuM7PQxuzYxmDK5lNArM4Sb4TCRgteE5FTqpQ850a6pMK/Qe7aQNVoQhWk0JzoXC8PS7cBPIy/TSVUJueT+BU16bw9uUEzAX7VY0rk6uZzFGTkWkq1ELsa6+9tuqu1i7ObQMFrlWXL44Y8bt9xGlXheS55jGMyE4HY/GWE8ULRV1CPCWPG2zkmZuAzJmxDppAZ0pCzoWc6zCuvolmzkyMe++bDcTmedQHSMuMxdyBukQyQWAyYbTgeh2IMAVG41gdTcwKGZhV0xO5UMIGKJxep8nsqyKgKTwAQ7eTBbKRSUMuInZxblqsdPGXeUrLZtX6MlWW1QWTGo7pffyv9toFzk1ETifPaoc1wVaQXurRc1oXQJbqMvsf51ahLFyJ5/M333zTGInPticAgzCNdqOJEAmUPTEwB5xMcKw92YRAkGTWQzWGM2GPDsikVYNqDniUaGZmqvFHpFMG5F6YW+3UOveW37ViYH8iRCJtZJLL3mPpxV05OjJKCMgWGZmN8LkKQRCQlgfdbxYNE9AWOVI9Ty/ZNkm+wxbRo2KZqm85SX/isrhR88Aw9t1CQL9vErjsBDt/8803W8hg2JAez1VIIACBgPfff7/FoHI9CAbRbpwx6Z5EHiEg93gcsgGwR1uOrE8t4VzgB4RKwNQK9JwCL/PsIwxaBewXXXDgyqR8Kyd99dVXzQaqQm3nsyxS2Ygp3JUcBnJACtuqPHeN7jFeZiP0yGzs4b0igN1iIFuEoppZL7bK5PamdfSpLO4DR6pVGMOCeO/JW6abgqOSgDgxqKZ33nmn2R6zIFcVg2X2RRuTlWwr6joGIjBjxgpBtlPIuTJFvm8joOoQyUIFa148zOfdd99t+APZ4FCk76MirwrfqEIJ5JmInhcXNGpfKsSNXNcdhkAA2/erKGGpCXZR8ao/VQ+SA8M6RqVhxAXMpYmR6bJ4y/ishfv7TTQjeNh2z1YnhjjQ2Av9bbZbTq8WuA/gspaWXlwvketqb5UKzYo8sPbdaZUN9brhQrZmSEhxlEl5563gq/BXhhFKIMiBgHAVasBSjoFkNtfsqxhaAX+6/v9zZNSOMIueaGN2bKBqAvVCKUm9azOTeVEGyY2RGS+ekD0PBtQA4t1ENvtIUNVny8C5NTVpqE2rQdSMe7JGp3FWOucB/TRqOlmqaTUh2/DoVGsSSBD/2GOPNYKhPtlcqX5Xh6etMNQwoD2hel4MKCim8vQF2JfY6oFM7yF0qEs8QjIg6cEZg+nwCPJUIz3v0q//6ApO1gLtnGimbxk4nz/66KMtdoFwxDkQiQ2QinD2ZGRXNjbzRMB5mcS8p37Iam/8MuTidbbUpc0GQgg9UHfMevqSgyjCuY8tHZx5l3Jnjt5rQWNCqyGrnhgdFo0l//szcF7jIY3orlWBOxP901dtPJmhm8ntVRixbRprhe6LUK2uc24uA262DKjvYSIB7ueT80yxVYF4UzNLdZNOWTYqV4kKbX+/rVtHIvFgOOaY+zQvEjJLb62lotpibbOTGRozJfvsmbGFIrd/aWslFIQQMbts4eY5kc3n7DawQLqN8fQLfK7P5AhTlrosDIwk20eYHiZKhpZpqXGWBISLrMllhRkgeU3d4JkcbgK931LFPMzNnJc5RIHn3R7nfCKugp/7e+LITKbXJGIeTOD4+5BCxlCAcDKBmUC+BfWVBII4pI2eGcsjqSqmAgiC+q1fSTDrg5c9xiR/AiBb9kfVnLlIYMqDeFIS+85ppSWT0COStumeNBMpfc08VASU6yEgSARYFsVnET8FuEwIwxhZCNV2pQrJSoTO1bb5TQua2wXx/shGVQtU/WouhCdde4nVn7JkHXLERlfwe/CRaTRqkJSXWktIRUBUlnVCC6zGjPuIAzPbzmKZT4dJ2zjlKC/tnj+RanEYCRypefa5SMZTdQqf39lfm4xROUkV8/fSRw+OO6mbhFcEVJ2Z6BZY3vexy9XQhMPdRC7bh/F+Mx8LslzMusLvJkQoCSDSmIrPtmlUNtD16/DAvMDlJsumxi6CastiSuU+KvIyoLE5uHG37jAB5VYQzFEjAGYT1D5sYNbsPIGBcU0kpO0VkTojFQGUgDx7U+bYpWKuqs8NlsDg8WCU4mRAcbLL+JsYUHPFe/4eoWZlSAJtRUC92c3Vc1cG9pk9qFSIKhTE0LfCs+Zj6THh+pREAvODZOFgfM9f0xnbpsb0iLVx2j8kgm43E/vgxpM8JORImJI+gPba8EPc8D1jrfthkJKAIhAVZ78H/R/YJdWfSGdxeq27FH0ZB2SABBAC0pjviSeeWJ2Hoiut86StrFJ5XMfl1ujz3C4/TiIzqiZ5lxk4aIDPubckw6sR7WQiI01SSrDz5mF9toU0tVrZQPse5RQQ8eOPP65ObcoMRaozqxuVBMr9nkyrI8PCVEtTkulWsHX7PWoSRI940YYh6f3qKfPugXd2NIj8EQdJ+9mHIYlz4j7G2vTjWCUBAVKKq9MhGqrURp809J6dLTErLtSWMYa7TlUdAO7L+3YtZ2lfbUDS0Ui1XLnxJjCESynT2zS80MFzI+ZICJFj87n3YJlz28/TlQTUTqjPDaz53j7I9BBFxqgHJlL0tsyDipS0XY69S0GZceDw7777rpXI9EoZa8TJ0LZrn8CDz4FwNJLVHMZkLo9IzszVJiZJB05B0EsmXEDCt/1AZElACJYDqEoAku/1FLWHNt2O2igXkNvZkqjGXJdt6VAK1AQiNbMllQQmYmXMHFftoLOhlGeIsW2OPJFRQUnv2RyxJyYnU5cENBNjLtIGU8MINnQAQLr6TNBn6zctQCehj+2UHCRmSlOVyWjmz2xJNmdVBNSeyWxmjGz1z9BGKfRw1m1jq3IliCbDNeMkZdpSO851fyS5JKDU593POhoM6O9G6OT0er+ygUqbCFXCE9lKt4nsXTzcjBf93JeGtiFZouU6VO95zbjMVJ1SW9lBr+d6+c5dSDo0yeAeRNhMV+WFVhzEZBDRDIXcpBqpFlCNfydcTzsovvDKNRtbNcQ+CMhE7HCCIwgxML67SMmdQKRNazQONIYmbCBg1/ZXGmwvEgjhqBnqoQrsSJx1JxNPJ8ckhSEEGSkICf6qVOFkAgKEhDNI9pdIKu6504mnneQ9f81aJ1C7N6sKTc/J4N5AVy/rRKjNGMDmuaHVbmt/BGQkizVZApNL+MxJT7wybjsRcDMGzL6Au1u3bjWVSR6YPfcWoWeXQLPnSKMd3abUTmp0O/uaGtRxgYD+Us6VSGDqa4mVP4x1IuB2Apray5PoM91Xaa/JKjRLHyaIeX/99dcbJ/Eyv9mnyLymy2zsmCWpY48jzZGaiDdzwvcG9xbE9SgzvwoOPHVJaRSnQz0/U+NAiYDNs/QB4SCgSedUBX3h1wIpi/U+FmDO8tgJmPU8symuMRP6rsPEP8Tku+UhEyufwaYxrpktyrzqOmmcLIHm5dpmw4sGVAAAUBLdXLf5J7MzvdSZX2QMnxkx4pWKmfu6aTUr930A7nVzsil9+A6cysHa/V0n1mxT10i1ZDIBmRzJA8CsFypB5jZVLTYESWDuy0beTN6OqJC5CVSNbxrM9RpCZUnJqr2EUUWS71QSTU4zH0SHuP6izqxeqNLmJNoE62Z8r0RZefAcGCvuLEjONASxAHvsKlS7rnaBWMDOeiCQ9o/rHu8FPggV+JEsCcU1viMVKU6VylkJqO3LfWsSJLkLYFKfq2rwWFkE5SkN/2ipp5KOq7gOzHmGjXEdjolJDpnaAB241ETgQWa1/R8C0zo40ng8WYXaQSaHqetdmGUoAOWzvTIS0B9iZFEpibtuYLkKYq11Ii56Qq3VqTHIqkAQa4ZIIteULu/TxGStke8oCMDI1WsyAeWkVH0QgslRCbyrRtTvGna9TYJ/jXfuObhONlCG1LO06dk0mcd6sSbv1UkzmU0RWBs66oVPJmDFIdV1Oc/D51Q7mYVP+6i6ktBysJ4uzJLX5HyQlPYqbWuqQZEL3KMMJEM6F7ZPeKr1T71+cALq5JhD1UOzs0vVm70oIsdrjNEnAVIFKwVZnjHuTOejt9G2Smx1ItyrfhG4098KrDLg3JmogxNQpPl7Fe7EUeoM9NN2ZHtB33phdj/PXFuXU8y+TZ5R2tI2mRGqCGgjMsdlMi5z9975VEnb9PzBCZgeGg4NiBS56Y1m20EGupmmU6rSC+a69iilzQxKBt6ZFhRhIxIkg5BV4X5TiHrhcxGv+RT7SKVNAVC7pCHvfyVb79T7tHl+7/+ZqtI5kDl0xyWGNitVZtrcTIlVFXETGXSQQTgct9QeVSpsCu6OgoCZOgLBnt+tZLlAke57erQ9kownUz1DFD27JKTpv3TxtX0jyHfvBWMaiLsXMZltKqGOVoWKJLMXIML9FyDCIJ/7PFwcRNnS+K+T+5a2jKNRsEWm9RiDoJguclQchOQzyEVqUNu27oEkxsMj9qfFK8QzhvbWfK4q1TVVY0y5/j9lptb+3gNBsgAAAABJRU5ErkJggg==;" vertex="1" parent="1">
          <mxGeometry x="531.12" y="220" width="72" height="66.21" as="geometry" />
        </mxCell>
        <mxCell id="DgCpWFNnC_7hHjafOFHn-6" value="" style="curved=1;endArrow=none;html=1;rounded=0;endFill=0;fillColor=#60a917;strokeColor=#80FF00;" edge="1" parent="1">
          <mxGeometry width="50" height="50" relative="1" as="geometry">
            <mxPoint x="240" y="286.21000000000004" as="sourcePoint" />
            <mxPoint x="290" y="236.21" as="targetPoint" />
            <Array as="points">
              <mxPoint x="290" y="286.21000000000004" />
              <mxPoint x="240" y="236.21" />
            </Array>
          </mxGeometry>
        </mxCell>
        <mxCell id="DgCpWFNnC_7hHjafOFHn-7" value="" style="curved=1;endArrow=none;html=1;rounded=0;endFill=0;fillColor=#a20025;strokeColor=#FF0000;" edge="1" parent="1">
          <mxGeometry width="50" height="50" relative="1" as="geometry">
            <mxPoint x="240" y="370" as="sourcePoint" />
            <mxPoint x="290" y="320" as="targetPoint" />
            <Array as="points">
              <mxPoint x="290" y="370" />
              <mxPoint x="240" y="320" />
            </Array>
          </mxGeometry>
        </mxCell>
        <mxCell id="DgCpWFNnC_7hHjafOFHn-8" value="" style="triangle;whiteSpace=wrap;html=1;fillColor=#FF8000;rotation=-30;strokeColor=#FF8000;" vertex="1" parent="1">
          <mxGeometry x="530" y="299.48" width="40" height="20" as="geometry" />
        </mxCell>
        <mxCell id="DgCpWFNnC_7hHjafOFHn-9" value="" style="triangle;whiteSpace=wrap;html=1;fillColor=#60a917;rotation=-30;fontColor=#ffffff;strokeColor=#2D7600;" vertex="1" parent="1">
          <mxGeometry x="530" y="350" width="40" height="20" as="geometry" />
        </mxCell>
        <mxCell id="DgCpWFNnC_7hHjafOFHn-11" value="" style="endArrow=classic;html=1;rounded=0;exitX=0.992;exitY=0.194;exitDx=0;exitDy=0;exitPerimeter=0;" edge="1" parent="1">
          <mxGeometry width="50" height="50" relative="1" as="geometry">
            <mxPoint x="460.00000000000017" y="251.03999999999996" as="sourcePoint" />
            <mxPoint x="531.12" y="252.61" as="targetPoint" />
          </mxGeometry>
        </mxCell>
        <mxCell id="DgCpWFNnC_7hHjafOFHn-13" value="" style="endArrow=classic;html=1;rounded=0;exitX=1.008;exitY=0.694;exitDx=0;exitDy=0;exitPerimeter=0;" edge="1" parent="1">
          <mxGeometry width="50" height="50" relative="1" as="geometry">
            <mxPoint x="460.9599999999998" y="320.52" as="sourcePoint" />
            <mxPoint x="530" y="319.48" as="targetPoint" />
          </mxGeometry>
        </mxCell>
        <mxCell id="DgCpWFNnC_7hHjafOFHn-15" value="" style="endArrow=classic;html=1;rounded=0;exitX=1.008;exitY=0.694;exitDx=0;exitDy=0;exitPerimeter=0;" edge="1" parent="1">
          <mxGeometry width="50" height="50" relative="1" as="geometry">
            <mxPoint x="460" y="370.5" as="sourcePoint" />
            <mxPoint x="529" y="369.5" as="targetPoint" />
          </mxGeometry>
        </mxCell>
        <mxCell id="DgCpWFNnC_7hHjafOFHn-16" value="" style="endArrow=classic;html=1;rounded=0;" edge="1" parent="1">
          <mxGeometry width="50" height="50" relative="1" as="geometry">
            <mxPoint x="340" y="268.1" as="sourcePoint" />
            <mxPoint x="270" y="268.1" as="targetPoint" />
          </mxGeometry>
        </mxCell>
        <mxCell id="DgCpWFNnC_7hHjafOFHn-18" value="" style="endArrow=classic;html=1;rounded=0;" edge="1" parent="1">
          <mxGeometry width="50" height="50" relative="1" as="geometry">
            <mxPoint x="340" y="350" as="sourcePoint" />
            <mxPoint x="270" y="350" as="targetPoint" />
          </mxGeometry>
        </mxCell>
        <mxCell id="DgCpWFNnC_7hHjafOFHn-19" value="Text" style="text;html=1;strokeColor=none;fillColor=none;align=center;verticalAlign=middle;whiteSpace=wrap;rounded=0;" vertex="1" parent="1">
          <mxGeometry x="510" y="230" width="60" height="30" as="geometry" />
        </mxCell>
        <mxCell id="DgCpWFNnC_7hHjafOFHn-20" value="2D Visualization" style="text;html=1;strokeColor=none;fillColor=none;align=center;verticalAlign=middle;whiteSpace=wrap;rounded=0;" vertex="1" parent="1">
          <mxGeometry x="365" y="289.48" width="70" height="30" as="geometry" />
        </mxCell>
      </root>
    </mxGraphModel>
  </diagram>
</mxfile>
